<?xml version="1.0" encoding="iso-8859-1"?>
<!-- Generator: Adobe Illustrator 19.0.0, SVG Export Plug-In . SVG Version: 6.00 Build 0)  -->
<svg version="1.1" id="Capa_1" xmlns="http://www.w3.org/2000/svg" xmlns:xlink="http://www.w3.org/1999/xlink" x="0px" y="0px"
	 viewBox="0 0 512 512" style="enable-background:new 0 0 512 512;" xml:space="preserve">
<g>
	<g>
		<g>
			<path d="M8,176c4.418,0,8-3.582,8-8V16h152c4.418,0,8-3.582,8-8s-3.582-8-8-8H8C3.582,0,0,3.582,0,8v160
				C0,172.418,3.582,176,8,176z"/>
			<path d="M168,496H16V344c0-4.418-3.582-8-8-8s-8,3.582-8,8v160c0,4.418,3.582,8,8,8h160c4.418,0,8-3.582,8-8S172.418,496,168,496
				z"/>
			<path d="M504,336c-4.418,0-8,3.582-8,8v152H344c-4.418,0-8,3.582-8,8s3.582,8,8,8h160c4.418,0,8-3.582,8-8V344
				C512,339.582,508.418,336,504,336z"/>
			<path d="M504,0H344c-4.418,0-8,3.582-8,8s3.582,8,8,8h152v152c0,4.418,3.582,8,8,8s8-3.582,8-8V8C512,3.582,508.418,0,504,0z"/>
			<path d="M328,248h-64v-64c0-4.418-3.582-8-8-8s-8,3.582-8,8v64h-64c-4.418,0-8,3.582-8,8s3.582,8,8,8h64v64c0,4.418,3.582,8,8,8
				s8-3.582,8-8v-64h64c4.418,0,8-3.582,8-8S332.418,248,328,248z"/>
		</g>
	</g>
</g>
<g>
</g>
<g>
</g>
<g>
</g>
<g>
</g>
<g>
</g>
<g>
</g>
<g>
</g>
<g>
</g>
<g>
</g>
<g>
</g>
<g>
</g>
<g>
</g>
<g>
</g>
<g>
</g>
<g>
</g>
</svg>
